<?xml version="1.0" standalone="no"?>
<!DOCTYPE svg PUBLIC "-//W3C//DTD SVG 20010904//EN"
 "http://www.w3.org/TR/2001/REC-SVG-20010904/DTD/svg10.dtd">
<svg version="1.0" xmlns="http://www.w3.org/2000/svg"
 width="1527.000000pt" height="1563.000000pt" viewBox="0 0 1527.000000 1563.000000"
 preserveAspectRatio="xMidYMid meet">

<g transform="translate(0.000000,1563.000000) scale(0.100000,-0.100000)"
fill="#000000" stroke="none">
<path d="M3274 11733 c-645 -779 -1097 -1799 -1243 -2809 -71 -485 -80 -1044
-25 -1509 94 -795 336 -1531 730 -2216 80 -141 239 -389 249 -389 3 0 -6 18
-20 40 -14 22 -25 46 -25 53 0 8 -3 17 -7 21 -5 4 -8 11 -8 14 -1 4 -14 32
-30 62 -40 75 -44 84 -51 137 -3 26 -13 57 -21 70 -8 12 -12 27 -8 33 3 6 -3
26 -15 45 -19 31 -20 35 -5 35 14 0 16 7 10 40 -6 38 -6 40 20 40 27 0 27 1
21 45 l-7 45 36 0 c40 0 40 1 19 73 -5 16 5 17 121 17 l127 0 -7 40 -7 40 165
0 165 0 -8 33 c-4 17 -11 44 -14 60 l-6 27 1780 0 1781 0 102 -68 c163 -109
300 -189 482 -283 204 -105 320 -154 706 -297 483 -180 829 -287 1094 -338
189 -37 494 -18 749 47 269 68 646 278 860 479 129 121 211 244 257 388 l23
72 373 0 c205 0 373 -2 373 -5 0 -2 -13 -27 -30 -55 -16 -28 -30 -53 -30 -55
0 -3 85 -5 190 -5 l190 0 -20 -32 c-11 -18 -20 -36 -20 -40 0 -5 59 -8 130 -8
72 0 130 -2 130 -5 0 -3 -9 -24 -20 -45 l-20 -40 40 0 41 0 -27 -45 -26 -45
31 0 31 0 -20 -40 -20 -40 45 0 c25 0 45 -3 45 -6 0 -3 -12 -25 -26 -50 -21
-36 -23 -44 -10 -44 21 0 20 -8 -4 -48 -24 -39 -24 -42 -5 -42 11 0 8 -12 -14
-47 -20 -32 -26 -50 -19 -55 9 -5 8 -10 -1 -21 -8 -10 -8 -16 -1 -19 6 -2 1
-18 -12 -38 -13 -19 -24 -41 -26 -49 -1 -7 -20 -39 -42 -71 -22 -32 -41 -64
-42 -71 -2 -8 -15 -33 -30 -56 -16 -23 -28 -45 -28 -49 0 -4 -11 -22 -25 -40
-14 -18 -25 -36 -25 -39 0 -4 -17 -29 -37 -55 -21 -27 -56 -75 -78 -106 -22
-32 -67 -90 -100 -128 -59 -69 -76 -92 -123 -158 -38 -54 102 97 215 232 759
905 1210 1985 1330 3190 24 240 24 814 -1 1050 -94 931 -368 1749 -839 2510
-124 200 -370 547 -430 605 -19 18 6 -18 66 -98 33 -43 60 -84 61 -91 1 -6 14
-29 29 -51 65 -92 204 -325 195 -325 -7 0 -7 -4 0 -12 11 -15 91 -166 91 -173
1 -3 8 -19 16 -35 9 -17 13 -30 9 -30 -3 0 3 -15 14 -33 11 -19 18 -48 17 -68
-1 -18 6 -51 16 -71 23 -45 23 -48 4 -48 -13 0 -12 -6 5 -40 24 -47 24 -50 5
-50 -13 0 -13 -4 1 -37 9 -21 18 -44 21 -50 4 -9 -8 -13 -41 -13 l-46 0 20
-40 20 -40 -30 0 c-36 0 -36 0 -10 -50 l20 -40 -39 0 -40 0 19 -42 19 -43
-129 -3 -130 -3 15 -36 c8 -19 15 -37 15 -39 0 -2 -79 -4 -175 -4 l-175 0 25
-50 c14 -27 25 -54 25 -60 0 -7 -876 -10 -2788 -10 l-2788 0 -198 473 c-109
259 -213 499 -232 533 -48 88 -115 158 -182 191 -56 28 -60 28 -275 31 -315 5
-424 -14 -572 -100 -121 -70 -333 -298 -465 -498 -112 -171 -211 -398 -250
-572 l-13 -58 -518 0 -519 0 10 25 c5 14 16 38 25 55 8 16 15 31 15 35 0 3
-79 5 -175 5 l-176 0 16 30 c8 16 15 34 15 40 0 6 -44 10 -125 10 -69 0 -125
2 -125 5 0 3 7 22 15 42 19 46 21 43 -20 43 -19 0 -35 2 -35 5 0 3 9 24 20 45
l20 40 -30 0 c-34 0 -35 4 -15 40 21 37 19 40 -30 40 l-45 0 25 50 c25 49 25
50 5 50 l-20 0 20 40 c24 47 24 50 5 50 -12 0 -10 10 10 50 l25 50 -28 0 -29
0 29 57 c18 35 25 59 18 61 -6 2 0 22 16 49 45 77 103 196 100 202 -2 3 22 46
54 96 32 49 57 92 54 96 -4 8 134 218 216 327 14 19 25 37 25 41 0 4 15 26 33
49 54 68 27 48 -34 -25z m2703 -554 c59 -28 131 -111 174 -200 20 -41 110
-252 199 -469 89 -217 214 -519 278 -670 155 -369 156 -373 36 -595 -56 -102
-201 -288 -358 -456 -143 -154 -154 -218 -64 -376 69 -122 211 -333 328 -488
400 -533 909 -970 1471 -1264 139 -73 428 -206 537 -247 120 -46 206 -29 288
58 109 114 420 495 524 642 35 49 81 101 103 117 73 53 159 49 325 -17 161
-65 1286 -609 1374 -665 73 -47 90 -83 96 -200 12 -242 -80 -634 -187 -801
-90 -140 -268 -298 -481 -426 -229 -138 -429 -217 -660 -260 -126 -23 -170
-27 -340 -26 -175 0 -207 3 -313 27 -315 72 -771 224 -1304 435 -776 308
-1530 878 -2224 1682 -228 265 -428 533 -755 1010 -298 437 -487 876 -560
1306 -24 139 -24 450 0 599 69 434 236 755 561 1081 102 102 132 126 199 158
119 57 167 64 455 65 238 1 257 0 298 -20z"/>
<path d="M2536 3063 c-6 -14 -5 -15 5 -6 7 7 10 15 7 18 -3 3 -9 -2 -12 -12z"/>
<path d="M2438 2777 l-86 -255 106 34 c197 62 337 112 317 114 -11 2 -46 2
-78 0 -33 -1 -64 3 -72 10 -8 7 -21 10 -29 7 -7 -3 -26 8 -42 24 -16 16 -22
29 -15 29 11 0 11 3 0 16 -7 9 -15 23 -17 33 -6 28 -1 162 7 185 5 11 5 29 2
40 -5 12 -35 -65 -93 -237z"/>
</g>
</svg>
